HIERARCHY
ROOT Hips
{
   OFFSET 0.00000 0.00000 0.00000
   CHANNELS 6 Xposition Yposition Zposition Zrotation Xrotation Yrotation
   JOINT RightUpLeg
   {
      OFFSET -11.629540 -11.267191 0.132148
      CHANNELS 3 Zrotation Xrotation Yrotation
      JOINT RightLeg
      {
         OFFSET 0.000000 -57.749504 1.784510
         CHANNELS 3 Zrotation Xrotation Yrotation
         JOINT RightFoot
         {
            OFFSET 0.329614 -54.720115 -1.898767
            CHANNELS 3 Zrotation Xrotation Yrotation
            JOINT RightToes
            {
               OFFSET 0.052000 -5.739617 11.048829
               CHANNELS 3 Zrotation Xrotation Yrotation
               End Site
               {
                  OFFSET -0.104000 -0.178682 12.713727
               }
            }
         }
      }
   }
   JOINT Spine
   {
      OFFSET 0.000000 15.457650 0.000000
      CHANNELS 3 Zrotation Xrotation Yrotation
      JOINT Spine1
      {
         OFFSET 0.000000 33.354620 0.165962
         CHANNELS 3 Zrotation Xrotation Yrotation
         JOINT HEad
         {
            OFFSET 0.000000 11.354408 0.014743
            CHANNELS 3 Zrotation Xrotation Yrotation
            End Site
            {
               OFFSET -0.377000 16.606459 3.268135
            }
         }
         JOINT LeftShoulder1
         {
            OFFSET 11.687000 -0.470928 -0.286000
            CHANNELS 3 Zrotation Xrotation Yrotation
            JOINT LeftArm
            {
               OFFSET 13.367510 -0.004394 0.418760
               CHANNELS 3 Zrotation Xrotation Yrotation
               JOINT LeftForeArm
               {
                  OFFSET 42.596969 0.128887 -1.851642
                  CHANNELS 3 Zrotation Xrotation Yrotation
                  JOINT LeftHand
                  {
                     OFFSET 35.833589 0.110971 1.328808
                     CHANNELS 3 Zrotation Xrotation Yrotation
                     End Site
                     {
                        OFFSET 21.767590 -0.780000 1.953783
                     }
                  }
               }
            }
         }
         JOINT RightShoulder
         {
            OFFSET -11.687000 -0.470928 -0.286000
            CHANNELS 3 Zrotation Xrotation Yrotation
            JOINT RightArm
            {
               OFFSET -13.367510 -0.004394 0.418760
               CHANNELS 3 Zrotation Xrotation Yrotation
               JOINT RightForeArm
               {
                  OFFSET -42.766227 0.128887 -1.851642
                  CHANNELS 3 Zrotation Xrotation Yrotation
                  JOINT RightHand
                  {
                     OFFSET -35.739729 0.110971 1.328808
                     CHANNELS 3 Zrotation Xrotation Yrotation
                     End Site
                     {
                        OFFSET -21.620562 -0.780000 1.953783
                     }
                  }
               }
            }
         }
      }
   }
   JOINT LeftUpLeg
   {
      OFFSET 11.629540 -11.267191 0.132148
      CHANNELS 3 Zrotation Xrotation Yrotation
      JOINT LeftLeg
      {
         OFFSET 0.000000 -57.749504 1.784510
         CHANNELS 3 Zrotation Xrotation Yrotation
         JOINT LeftFoot
         {
            OFFSET -0.329614 -54.720115 -1.898767
            CHANNELS 3 Zrotation Xrotation Yrotation
            JOINT LeftToes
            {
               OFFSET -0.052000 -5.739617 11.048829
               CHANNELS 3 Zrotation Xrotation Yrotation
               End Site
               {
                  OFFSET 0.104000 -0.061682 12.713727
               }
            }
         }
      }
   }
}
MOTION
Frames: 16
Frame Time: 0.016667
0.00000 96.00000 0.00000 0.00000 0.00000 0.00000 0.00000 0.00000 0.00000 0.00000 0.00000 0.00000 0.00000 0.00000 0.00000 0.00000 0.00000 0.00000 0.00000 0.00000 0.00000 0.00000 0.00000 0.00000 0.00000 0.00000 0.00000 0.00000 0.00000 0.00000 0.00000 0.00000 0.00000 0.00000 0.00000 0.00000 0.00000 0.00000 0.00000 0.00000 0.00000 0.00000 0.00000 0.00000 0.00000 0.00000 0.00000 0.00000 0.00000 0.00000 0.00000 0.00000 0.00000 0.00000 0.00000 0.00000 0.00000 0.00000 0.00000 0.00000 0.00000 0.00000 0.00000 
-143.739326 68.876232 289.132667 86.788598 -75.973021 103.818916 -9.307670 94.287189 125.484891 -150.031621 232.998926 44.043061 7.370633 15.001723 76.975317 57.440197 -56.026061 32.518671 6.396455 87.177802 40.054036 46.320058 -10.854754 -104.620494 -17.276311 12.065668 23.428604 82.426668 85.391237 -94.549516 -97.873025 220.946948 -153.792979 -46.767518 273.746277 -108.224074 -52.963800 -47.007312 -115.249429 97.814832 329.462016 60.119564 34.178062 47.165987 394.787775 -35.263133 42.105814 87.611622 -36.019020 31.873136 -21.279389 -9.290592 29.544031 29.543877 47.987465 23.131738 61.705179 -47.670154 110.846894 3.188535 43.611649 27.741288 -89.689830
-144.276979 71.117324 288.711067 88.117903 -73.281680 102.678930 -8.888845 93.845269 123.286062 -148.369508 231.592590 39.231275 7.662949 13.774711 76.386746 58.014882 -56.886583 31.731041 5.538028 88.918982 40.850887 45.146840 -9.406747 -103.279926 -18.487597 15.073797 23.506287 82.060072 85.203400 -94.974866 -98.639242 220.222374 -156.337976 -43.566276 273.729830 -103.206037 -52.511010 -51.288225 -113.718715 98.435614 325.812427 57.242193 37.192764 47.097313 393.730817 -37.314006 43.345091 86.281313 -38.322709 30.450769 -18.162206 -9.960009 30.356663 29.453695 44.716740 28.872255 58.327869 -47.070956 110.134034 -0.717216 44.308694 26.784720 -90.953039
-144.785946 73.018011 288.618083 88.352315 -69.242696 100.000820 -8.930365 92.073826 120.073141 -145.522453 229.321197 34.600823 7.258490 12.320078 75.606574 58.781687 -58.238865 30.495442 4.631122 85.560120 40.056006 43.826322 -10.123843 -102.586279 -18.926234 18.617798 23.037222 85.296721 84.069219 -95.205098 -100.244603 218.598866 -159.136209 -41.360111 273.526646 -98.711123 -51.053270 -54.737990 -113.254693 97.018363 321.283083 52.952298 43.365708 45.844646 390.432218 -38.088707 44.253250 86.188941 -41.802435 28.094865 -14.836749 -11.533822 32.320937 29.948986 40.175087 33.284209 55.281492 -43.805910 109.367748 -3.120056 44.856687 27.674467 -89.915513
-145.293291 74.814767 288.624645 85.040732 -65.967210 96.544512 -8.828692 91.840595 112.516732 -143.610833 227.417910 32.384403 5.721476 12.476478 76.015122 57.830795 -57.302200 29.991945 3.424899 82.333013 41.289279 39.772591 -9.535942 -102.838470 -18.498411 23.327990 21.981022 85.849788 82.019398 -99.308860 -101.635564 214.300450 -161.199677 -38.971301 274.752501 -93.904473 -49.817955 -57.083863 -112.339024 93.922129 313.684361 46.072010 53.641464 45.241435 387.792869 -42.971534 49.667541 81.295411 -45.806237 24.760281 -9.959311 -13.630712 32.367215 34.500225 40.225880 30.787580 48.373773 -43.675761 108.320120 -3.591593 44.530900 29.913537 -87.572342
-145.655058 76.426910 288.666988 79.821982 -64.124896 92.424235 -8.199761 91.774656 101.516999 -140.826398 224.757989 31.953373 3.374767 13.315583 77.164841 55.710619 -55.443678 30.233716 2.228049 81.335819 43.758789 38.820056 -7.910694 -100.772611 -16.930031 26.329756 19.437955 86.414099 79.350126 -100.607163 -102.876671 209.241534 -163.822470 -37.671167 275.687663 -92.742187 -48.758644 -57.106378 -112.271767 89.693628 306.492035 37.648617 63.213435 44.843201 383.979438 -43.516279 52.284176 81.809301 -49.503975 21.752214 -5.347631 -15.329496 32.051107 40.506225 42.524146 25.375794 44.133803 -43.165201 106.781197 -2.006522 43.167202 33.157348 -84.156612
-145.958250 78.374008 288.605609 70.224890 -63.554487 83.753692 -8.769609 90.442066 87.429987 -138.629385 219.554792 31.992569 0.463488 13.999739 78.178892 52.853527 -53.655617 31.064626 -0.155235 82.422434 46.068315 42.220124 -6.416261 -97.350427 -15.621845 31.682594 15.324219 86.398157 77.102597 -98.500487 -99.327193 208.884329 -163.336215 -39.614424 273.960117 -93.385051 -46.433986 -56.561503 -114.435838 86.271730 300.118758 29.578469 73.714181 44.314373 381.304326 -41.522991 54.674209 86.967761 -54.868300 17.214358 0.283033 -16.173560 30.106449 45.575059 43.374799 21.355580 41.713533 -47.286745 102.306521 -4.154659 41.153737 34.698375 -82.444837
-146.263244 80.340518 288.479190 60.950737 -60.744403 74.989733 -9.835322 88.685054 70.480333 -133.276074 212.286610 34.089652 -1.055238 15.679012 80.633846 48.830822 -51.150149 32.744504 -4.940067 81.995328 49.083488 39.886297 -6.708889 -95.017466 -13.285614 33.511872 11.631570 84.335262 69.679869 -99.374526 -102.471218 203.659179 -165.058447 -40.108875 274.656305 -92.864481 -44.874432 -57.837052 -113.498934 78.572222 289.216055 22.279739 81.881619 43.742666 376.013962 -42.266215 57.839401 87.276608 -55.414831 15.686551 6.382735 -17.938638 26.417292 48.018125 43.029813 19.899136 39.668031 -50.667696 98.071852 -6.080057 39.965459 36.018965 -81.655963
-146.489370 82.680892 288.723331 52.823512 -60.086704 65.792644 -7.345958 83.684127 52.403865 -128.130934 199.363632 34.329842 -0.929220 16.566103 82.258782 45.181524 -49.649075 33.739229 -12.865379 75.968827 53.922892 42.023825 -7.586285 -89.604726 -11.077378 33.503184 8.514544 79.943143 67.527601 -99.159443 -102.250923 197.161251 -163.873478 -39.049988 271.168455 -92.942079 -42.682747 -59.909427 -112.196068 71.410174 279.026533 16.487165 88.885227 44.294747 369.616534 -43.940256 54.738502 86.258302 -54.408641 15.367869 11.943472 -17.484815 24.145069 47.741636 41.947685 18.015295 38.700501 -51.546382 95.315666 -5.974246 39.834018 37.528010 -81.433327
-146.929529 85.573510 289.006820 42.747432 -55.087863 52.695405 -9.423786 75.737283 29.965529 -127.308483 181.506349 34.338943 0.921874 16.620646 84.015268 40.960668 -48.177965 34.959999 -11.859063 67.524896 58.966061 44.799815 -5.556672 -90.152767 -9.596580 33.982869 5.754953 73.871146 63.430580 -93.907895 -107.953612 191.035364 -165.449052 -40.143767 266.181078 -95.104982 -38.992102 -61.402479 -113.596366 61.185197 272.974193 10.205509 89.106791 41.118251 366.424076 -44.474732 51.444240 85.609775 -53.554950 13.924963 20.286085 -16.890843 18.012288 50.771053 36.554025 20.335625 37.048428 -54.250789 92.226740 -7.622518 39.196219 37.551895 -82.053159
-147.153461 88.219699 289.103141 29.553296 -51.014331 37.732851 -13.144599 66.899920 1.642353 -128.188826 158.676236 38.157767 1.170425 18.359093 85.710596 36.113911 -44.032898 35.649814 -11.032158 60.951925 66.573014 49.113192 -2.677217 -87.183280 -8.994158 33.796514 3.499393 69.560416 62.983237 -87.845139 -104.619394 183.260532 -164.418486 -39.488660 265.243102 -94.588722 -36.422247 -63.163978 -111.767583 52.117943 269.399682 2.282221 88.513350 37.691771 372.050485 -39.759433 49.971460 90.219470 -50.876337 13.295045 26.576758 -13.467589 10.276043 53.528995 34.801648 21.307784 38.565116 -56.186478 91.000413 -6.193504 37.552295 38.111493 -81.284374
-147.448614 90.731667 288.953186 15.997454 -47.683296 6.265744 -21.855444 38.194069 -39.963491 127.638067 121.702127 -200.929918 -2.514893 23.199270 85.629938 31.679934 -35.747356 34.107492 -13.699818 62.234928 79.379502 39.315327 -1.903889 -85.764363 -8.794485 32.205233 1.726533 61.871692 63.781440 -83.610108 -109.636277 175.405651 -164.548505 -37.649242 256.354676 -92.066305 -32.725332 -67.302696 -108.670454 52.535978 277.009578 2.627374 76.959361 44.262744 388.152629 -43.827036 46.701511 83.228608 -48.366622 13.588426 28.105832 -10.538468 0.083000 56.051432 34.436670 23.124493 42.399851 -58.510488 89.527695 -3.996155 34.834535 38.101613 -80.102191
-147.770317 93.366936 288.575187 7.703227 -39.412760 5.399075 -17.456413 33.974471 -20.210048 56.879667 54.744523 -186.247429 -4.448396 22.356818 87.128489 26.626709 -32.648950 37.623055 -12.756467 55.303915 78.361367 39.094203 -6.588936 -93.125354 -6.677299 30.313670 0.052814 53.971349 64.841185 -80.236821 -112.950920 169.016091 -164.841397 -35.583776 249.224587 -91.498136 -31.707849 -64.712081 -103.198769 60.969178 287.237267 3.891550 65.343593 52.205683 403.147271 -40.926227 35.306122 82.238346 -38.589647 12.095621 27.069792 -5.403712 -7.246757 53.255026 34.052571 22.084466 42.116818 -59.920075 87.829150 -4.654909 33.604879 38.225451 -80.622556
-147.767027 95.698603 288.349929 2.514864 -34.713303 1.261884 -4.403347 37.208593 -21.436585 21.922337 42.645796 -120.290655 0.496751 16.709182 84.765632 26.719024 -39.680148 38.633053 -9.101003 50.178364 81.804465 40.454766 -7.105502 -93.977973 -5.278158 33.348337 -1.082764 46.881134 62.081434 -77.016298 -111.271834 161.026559 -164.279082 -32.816091 241.159008 -87.775348 -33.171394 -59.457145 -98.008515 61.918629 290.617938 3.274691 58.332527 53.046097 411.915731 -37.162725 29.788712 81.208620 -24.449094 9.495658 24.451681 -2.807875 -10.156697 52.199304 34.628851 21.025867 43.853537 -62.661125 82.154328 -5.969176 31.582747 37.494918 -80.643839
-147.333496 97.383860 288.321262 -3.075595 -30.944951 -3.794263 -3.016258 33.439862 -15.776571 27.868135 40.221126 -113.215740 -0.331055 11.209289 76.681304 27.330911 -41.835363 35.549762 -6.410799 41.156978 81.906440 38.735321 -7.058861 -95.967962 -4.032019 35.272791 -1.373512 41.135958 57.504230 -72.689653 -116.477511 148.847075 -169.239179 -28.726854 232.431337 -77.172818 -37.893107 -52.278124 -95.269917 59.663936 291.669076 2.163144 58.351358 53.570120 412.407041 -37.082746 30.607106 79.111499 -7.270765 8.236405 18.738674 1.071799 -12.482936 51.036983 35.060741 20.766910 45.204401 -64.677547 78.168264 -6.633320 30.343744 37.740169 -80.810850
-146.686676 98.672493 288.093105 -6.436311 -27.029179 -8.177786 -1.382699 28.793455 -8.444479 27.904186 37.857778 -103.617412 -1.473476 6.293484 67.435605 27.598906 -41.672429 31.305250 -5.260207 29.367522 88.730373 38.205749 -5.287171 -92.958444 -2.920858 36.481724 0.812591 32.882122 56.961339 -68.454287 -118.589638 133.188648 -170.497436 -26.391385 224.945983 -72.729685 -44.414630 -60.696981 -96.170184 55.219364 286.566488 3.188839 59.525290 47.358674 403.846136 -39.200587 32.459047 79.022256 -9.589403 14.869288 21.752054 4.989786 -14.241172 49.870770 33.759627 22.804731 47.897012 -66.370061 75.810687 -6.576510 29.624470 38.404535 -81.237409
